<svg xmlns="http://www.w3.org/2000/svg" width="1986.34" height="1465.292" viewBox="0 0 1986.34 1465.292">
  <g id="Curve_patterns" data-name="Curve patterns" transform="translate(31.113 45.066)" opacity="0.1">
    <path id="Caminho_219" data-name="Caminho 219" d="M124.416,2.319C122.761,32.049,121.939,103.88,72.4,155.9s-34.68,153.581,34.68,156.058,106.516,22.294,138.718,66.882S379.558,522.512,421.669,482.878,555.433,393.7,572.773,329.3s99.085-141.2,163.489-143.672,99.084,14.863,116.424,54.5,123.856,32.2,121.378,101.562-76.79,208.077-56.974,270.005,113.947,29.725,113.947-9.908-7.431-49.542,2.477-84.222,49.542-106.516,81.745-94.13,94.13,4.954,118.9-14.863,94.13-136.241,138.718-116.424,153.581,99.084,116.424,190.738-91.653,190.738-99.084,222.94,19.817,27.248,17.34,89.176-17.34,116.424,9.909,136.241,101.562,24.771,116.424-7.431,52.019-101.562,86.7-96.607,99.085-19.817,94.13-59.451,4.954-99.084,22.294-123.856,108.993-101.562,108.993-101.562V-24.929S1114.336-5.293,604.973,2.324C492.824,4,406.3-42.561,325.884-43.916,211.828-45.836,126.071-27.409,124.416,2.319Z" transform="translate(108.218)" fill="none" stroke="#5b4da7" stroke-width="2"/>
    <path id="Caminho_220" data-name="Caminho 220" d="M-1.869,91.026C29.506,72.861,123.642,204.143,98.87,233.869s-12.386,79.268-22.294,96.607-9.908,42.111,0,74.313,81.745,17.34,96.607-7.431,49.542-61.928,69.359-64.4,84.222,29.725,84.222,56.974,14.863,96.607-4.954,118.9-24.771,136.241-69.359,153.581-54.5,61.928-49.542,101.562,101.562,66.882,136.241,47.065,116.424-116.424,94.13-136.241-9.908-89.176,12.386-116.424,66.882-42.111,74.313-22.294S569.522,523.69,572,558.37s-9.908,111.47,4.954,146.15,99.084,17.34,121.378-9.908,104.039-39.634,136.241-27.248,47.065,131.287,81.745,138.718,74.313-22.294,99.084-47.065,99.084-81.745,143.672-79.268,96.607-17.34,143.672,14.863,106.516,104.039,116.424,146.15,34.68,133.764,49.542,161.012,91.653,69.359,128.81,44.588,84.222-54.5,118.9-59.451,59.451,7.431,66.882,27.248-19.817,29.725,0,49.542,74.313,22.294,79.268-2.477,9.908-39.634,17.34-81.745,74.313-12.386,74.313-12.386v255.143H-29.939S-33.244,109.193-1.869,91.026Z" transform="translate(0 196.991)" fill="none" stroke="#5b4da7" stroke-width="2"/>
    <path id="Caminho_221" data-name="Caminho 221" d="M902.519,993.615c2.163-11.189,6.032-38.256,17.365-57.66,12.866-22.031,33.134-36.475,31.375-47.89-3.3-21.469-36.676-18.209-44.588-42.936s-11.2-42.24-28.073-62.753-33.946-116.528-61.1-128.81-84.219-1.652-104.036,8.256S662.264,693.2,606.115,698.156c-40.327,3.557-61.858-10.438-67.355-23.268-12.135-28.316,14.83-146.006,2.953-153.435s-19.817,8.259-39.634,4.954-42.547-4.112-52.666,8.259c-7.555,9.232-15.043,26.421-18.345,37.982s-3.421,35.638,3.245,44.241,13.743,15.214,11.831,33.582c-4.652,44.675-77.635,124.113-110.13,142.682-11.484,6.562-51.918,23.9-83.3,23.9s-94.665-19.165-100.734-67.709c-7.642-61.14,27.63-130.581,76.065-149.417,16.072-6.25,28.737-56.32,35.542-83.219,7.2-28.442,21.7-69.9,18.853-112.508s-30.882-76.075-47.89-69.359S193.636,346.314,179,370.711c-14.769,24.613-45.74,66.52-74.908,66.52-29.785,0-42.936-9.906-56.146-56.146s3.3-93.883,3.3-120.554A843.481,843.481,0,0,1,56.2,169.7c2.331-21.7-24.662-61.712-34.625-52.324S-19.6,1158.073-19.6,1158.073s630.346-14.583,863.514-70.186C898.872,1074.783,900.609,1003.5,902.519,993.615Z" transform="translate(15.426 236.382)" fill="none" stroke="#5b4da7" stroke-width="1"/>
    <path id="Caminho_222" data-name="Caminho 222" d="M152.546,62.122C150.069,89.37,127.775,119.1,103,131.481s-37.157,42.111-29.725,71.836,66.882-2.477,96.607-4.954,61.928,47.065,71.836,71.836c0,0,4.954,39.634,29.725,59.451s66.882,19.817,79.268,0,52.019-49.542,59.451-74.313,24.771-49.542,12.386-64.4-39.634-44.588-44.588-54.5,7.431-37.157,27.248-42.111S437.414,129,457.23,119.1s56.974-32.2,61.928-52.019,9.911-47.068-9.908-69.359S203.74-21.278,187.225-12.192,155.023,34.874,152.546,62.122Z" transform="translate(149.448 36.804)" fill="none" stroke="#5b4da7" stroke-width="2"/>
    <g id="Grupo_273" data-name="Grupo 273" transform="translate(450.733 784.476)">
      <path id="Caminho_223" data-name="Caminho 223" d="M193.659,404.153s7.431-19.817-7.431-42.111-9.908-39.634,2.477-54.5,49.542-27.248,56.974-4.954-4.954,71.836-2.477,86.7,2.477,59.451,27.248,69.359,49.542,4.954,66.882,0,44.588-4.954,49.542,7.431,2.477,32.2-4.954,49.542-47.065,14.863-54.5,37.157-34.68,39.631-64.4,32.2-34.68-47.065-64.4-56.974-39.634-32.2-32.2-49.542S193.659,404.153,193.659,404.153Z" transform="translate(-164.046 -290.421)" fill="none" stroke="#5b4da7" stroke-width="2"/>
      <path id="Caminho_224" data-name="Caminho 224" d="M263.961,550.375a36.912,36.912,0,0,1-8.472-1.006c-6.361-1.506-11.6-8.068-19.626-18.653C225.6,517.176,189.641,490,179.732,475.14s2.824-71.222,20.852-74.42,10.166,55.517,46.691,69.347a118.934,118.934,0,0,0,42.3,7.493c18.444,0,48.69-23.887,61.9-12.329s-2.078,26.309-11.771,31.321-39.151,13.51-47.355,36.812C289.446,541.611,278.512,550.375,263.961,550.375ZM179.732,326.513s8.259-26.423,23.121-28.073,16.512,8.256,9.908,23.119,0,34.682-11.561,33.03S174.778,336.422,179.732,326.513Z" transform="translate(-145.99 -278.841)" fill="none" stroke="#5b4da7" stroke-width="1"/>
    </g>
    <g id="Grupo_274" data-name="Grupo 274" transform="translate(1104.569 26.973)">
      <path id="Caminho_225" data-name="Caminho 225" d="M428.006-.4s49.542,69.359,49.542,106.516,22.294,69.359,17.34,94.13-9.908,59.451,7.431,66.882,47.065-2.477,59.451-17.34,32.2-56.974,44.588-56.974,37.156-7.431,39.634,4.954,9.909,39.634-7.431,54.5-37.157,44.588-39.634,64.4-2.477,37.157,7.431,44.588,47.065-12.386,61.928-29.725,39.634-59.451,59.451-74.313,64.4-54.5,91.653-44.588,71.836-2.477,91.653-29.725,32.2-84.222,54.5-113.947,49.542-64.4,14.863-79.268S425.529-2.878,428.006-.4Z" transform="translate(-427.998 15.38)" fill="none" stroke="#5b4da7" stroke-width="2"/>
      <path id="Caminho_226" data-name="Caminho 226" d="M592.861,301.828c-4.783-5.727,15.123-35.269,29.389-48.088,25.618-23.012,18.358-59.064,15.256-74.459-.2-.991-.386-1.917-.547-2.764-1.2-6.277-7.337-26.755-36.04-26.755a128.188,128.188,0,0,0-16.3,1.367c-2.975.381-6.346.817-7.922.817-20.753,0-42.408,55.4-59.973,65.1s-26.758-4.669-22.215-28.484c3.562-18.65-1.984-37.164-7.347-55.066-4.2-14.028-8.546-28.534-8.546-42.735,0-25.237-15.063-58.319-29.056-83.6,79.414-4.216,266.753-11.962,386.3-11.962,66.077,0,81.74,2.579,84.935,3.352.188.092.354.178.51.26-1.959,8.851-15.507,27.756-23.057,38.286l-1.625,2.272c-12.819,17.912-21.821,42.049-30.53,65.393-6.8,18.229-13.832,37.08-21.048,47.479-8.957,12.908-29.408,22.638-47.576,22.638h0A34.335,34.335,0,0,1,785.506,173a47.225,47.225,0,0,0-16.9-3.025c-30,0-62.242,26.52-83.578,44.068-2.955,2.433-5.618,4.627-7.917,6.431-15.148,11.91-30.352,34.481-43.761,54.4-6.1,9.059-11.863,17.615-16,22.68C611.6,304.575,597.647,307.555,592.861,301.828Z" transform="translate(-396.15 30.995)" fill="none" stroke="#5b4da7" stroke-width="1"/>
      <path id="Caminho_227" data-name="Caminho 227" d="M470.712,31.629s17.34,52.019,19.817,76.79,27.248,19.817,42.111,12.386,74.313-19.817,84.222-4.954,14.863,44.588,24.771,52.019,19.817,4.954,32.2-4.954,44.588-39.634,61.928-34.68,47.065,0,59.451-14.863,39.634-87.526,34.68-103.214S506.63-10.482,491.768-4.289,465.758,14.289,470.712,31.629Z" transform="translate(-366.664 27.938)" fill="none" stroke="#5b4da7" stroke-width="1"/>
      <path id="Caminho_228" data-name="Caminho 228" d="M489.344,18.224c-2.532,19.346,1.266,56.652,12.648,66.325S576.62,65.2,589.268,80.4s26.562,42.834,40.476,38.688,34.152-27.635,50.6-29.017,39.21-15.2,45.537-35.926-24.033-40.07-44.271-38.688S579.149,12.7,562.706,4.407,491.873-1.12,489.344,18.224Z" transform="translate(-338.489 38.099)" fill="none" stroke="#5b4da7" stroke-width="1"/>
      <path id="Caminho_229" data-name="Caminho 229" d="M527.378,15.875c-2.477,7.431-6.193,19.817,8.67,27.248s26.01,26.01,37.157,29.725,21.055-3.716,34.68-13.624,9.908-29.725,0-35.918S529.855,8.444,527.378,15.875Z" transform="translate(-284.612 57.317)" fill="none" stroke="#5b4da7" stroke-width="1"/>
    </g>
    <g id="Grupo_275" data-name="Grupo 275" transform="translate(1533.118 481.133)">
      <path id="Caminho_230" data-name="Caminho 230" d="M729.811,226.682c-14.863,24.771-61.928,56.974-86.7,89.176s-47.065,56.974-39.634,76.79,22.294,54.5,12.385,74.313S601,553.66,601,571s7.431,17.34,22.294,24.771,44.588,2.477,54.5-17.34,29.725-52.019,42.111-79.268,24.771-44.588,44.588-52.019,47.065-32.2,52.019-52.019,9.909-64.4,29.725-94.13,44.588-76.79,32.2-99.084-32.2-39.634-52.019-32.2S744.673,201.91,729.811,226.682Z" transform="translate(-601.001 -167.962)" fill="none" stroke="#5b4da7" stroke-width="2"/>
      <path id="Caminho_231" data-name="Caminho 231" d="M613.814,531.186c-9.188-11.246,5.948-65.317,12.024-77.469,13.693-27.387-17.5-64.482-15.264-83.008s20.483-36.914,31.244-50.692c2.705-3.463,5.482-7.018,8.291-10.669,10.379-13.5,26.166-27.813,41.43-41.66,18.43-16.713,35.524-35.222,53.577-50.974s64.66-49.79,79.431-24.315,6.5,28.331-21.075,69.7c-17.954,26.929-29.175,53.493-32.418,77.809s-14.982,55.227-29.614,60.714c-30.065,11.276-41.033,24.677-53.057,51.133-6.993,15.385-30.8,63.221-40.525,69.7S623,542.434,613.814,531.186Z" transform="translate(-587.031 -145.411)" fill="none" stroke="#5b4da7" stroke-width="1"/>
      <path id="Caminho_232" data-name="Caminho 232" d="M638.644,293.485s-24.769,21.469-18.164,39.634,13.208,41.286,6.6,61.1-13.208,33.027-1.65,37.981,28.07-42.936,36.329-57.8,23.122-33.03,47.893-52.847,33.03-49.542,29.725-75.963-18.165-36.332-29.725-23.121S638.644,293.485,638.644,293.485Z" transform="translate(-574.239 -96.048)" fill="none" stroke="#5b4da7" stroke-width="1"/>
      <path id="Caminho_233" data-name="Caminho 233" d="M638.231,274.4s37.984-47.89,44.588-36.329-11.561,42.936-21.469,52.844-16.515,33.027-24.771,33.027S628.322,284.312,638.231,274.4Z" transform="translate(-557.311 -67.058)" fill="none" stroke="#5b4da7" stroke-width="1"/>
    </g>
    <path id="Caminho_234" data-name="Caminho 234" d="M684.522,356.043s44.591,0,61.1-16.515,8.254-26.421,6.6-49.542-3.3-37.984-18.165-21.469-26.421,44.588-37.982,52.847S672.962,351.089,684.522,356.043Z" transform="translate(1048.414 451.337)" fill="none" stroke="#5b4da7" stroke-width="1"/>
    <path id="Caminho_235" data-name="Caminho 235" d="M706.677,268.991s6.607-24.771,9.909-36.332,24.771-16.515,19.817,0-1.652,36.332-11.561,49.542S703.375,278.9,706.677,268.991Z" transform="translate(1087.363 393.065)" fill="none" stroke="#5b4da7" stroke-width="1"/>
    <g id="Grupo_276" data-name="Grupo 276" transform="translate(1592.451 9.75)">
      <path id="Caminho_236" data-name="Caminho 236" d="M663.052,402.078c-3.3,13.21-6.6,37.982-24.771,66.057s-11.563,44.586-13.213,56.146,14.863,9.908,24.771,0,31.375-41.284,54.5-57.8,87.524-57.8,123.856-44.588,51.194,52.844,41.286,75.966-18.165,52.844-9.909,61.1,11.558,26.423,23.119,16.515,42.938-41.286,66.057-62.753S965.26,449.97,965.26,411.986V-22.333H737.366s3.3,95.782-8.259,122.2-19.817,59.451-39.634,71.011-37.979,56.149-51.192,72.661,3.3,34.68,16.512,59.451S666.357,388.867,663.052,402.078Z" transform="translate(-624.954 22.333)" fill="none" stroke="#5b4da7" stroke-width="1"/>
      <path id="Caminho_237" data-name="Caminho 237" d="M741.843-5.938c-1.65,19.817,3.3,94.13-11.558,128.81s-36.329,80.917-54.5,94.13-42.938,42.936-28.076,69.359,21.469,74.311,16.515,95.78-1.652,41.286,19.817,37.984,72.664-31.378,100.737-31.378,64.4,23.121,69.359,39.634,1.65,46.24,1.65,66.057,11.558,24.769,24.771,16.512,37.984-31.375,42.938-61.1S923.5.666,923.5.666,743.493-25.755,741.843-5.938Z" transform="translate(-598.056 35.663)" fill="none" stroke="#5b4da7" stroke-width="1"/>
      <path id="Caminho_238" data-name="Caminho 238" d="M753.047,23.381s-3.3,108.993-13.21,138.718-42.938,62.753-66.057,74.313-19.817,46.24-13.211,62.755,16.513,49.542,13.211,64.4,8.256,24.771,29.725,14.863,56.146-26.423,84.222-19.817,66.055,34.68,64.4,62.753,9.086,29.725,23.121,18.165,14.035-94.128,14.035-127.155,14.035-268.358,0-289S754.7-21.207,753.047,23.381Z" transform="translate(-579.534 52.582)" fill="none" stroke="#5b4da7" stroke-width="1"/>
      <path id="Caminho_239" data-name="Caminho 239" d="M755.6,67.793s8.259,87.524,3.3,112.295-36.329,42.938-54.5,49.542-41.286,13.213-36.332,24.771,8.256,26.421,18.165,28.073,31.375-4.954,29.725,9.908-19.817,36.332-18.165,47.892,34.682-9.911,56.149-8.259,56.146,11.561,71.009,29.725,14.865,49.542,23.121,49.542,9.906-46.238,6.6-77.615-26.423-59.451-39.634-82.57S820,196.6,828.26,175.134s33.03-66.057,24.771-105.691-14.863-57.8-41.286-62.753C797.1,3.945,773.766.254,762.2,11.644,752.906,20.8,753.387,41.3,755.6,67.793Z" transform="translate(-562.267 61.017)" fill="none" stroke="#5b4da7" stroke-width="1"/>
      <path id="Caminho_240" data-name="Caminho 240" d="M712.31,23.938s-3.3,14.865,1.652,51.194-1.65,72.661,9.908,82.57,33.025-9.906,41.284-37.982,13.213-61.1,8.259-77.615S715.612.82,712.31,23.938Z" transform="translate(-497.511 76.796)" fill="none" stroke="#5b4da7" stroke-width="1"/>
      <path id="Caminho_241" data-name="Caminho 241" d="M719.7,39.012s3.3,72.664,14.863,66.057,18.167-33.03,16.515-51.194S718.052,14.241,719.7,39.012Z" transform="translate(-485.089 96.402)" fill="none" stroke="#5b4da7" stroke-width="1"/>
      <path id="Caminho_242" data-name="Caminho 242" d="M716.076,97.774c-8.259,1.652-24.773,8.256-18.167,34.68s-1.65,46.238,16.515,44.588,49.542,3.3,59.451,14.863,23.119-1.652,14.863-26.423-21.469-33.03-31.378-46.24S724.335,96.122,716.076,97.774Z" transform="translate(-519.442 199.479)" fill="none" stroke="#5b4da7" stroke-width="1"/>
    </g>
    <g id="Grupo_277" data-name="Grupo 277" transform="translate(1510.682 695.083)">
      <path id="Caminho_243" data-name="Caminho 243" d="M983.467,254.333S934.752,275.8,936.4,323.692s-4.954,99.087-36.332,105.691-89.179,14.863-110.645,44.588S723.37,582.964,687.038,578.01s-87.524,3.3-94.13,41.286,21.469,122.2,61.1,135.414,99.084-44.586,133.764-51.192,87.524,3.3,97.432,26.421,33.03,29.728,46.24,8.259,18.167-64.4,44.588-85.874,47.89-49.542,47.89-49.542S997.5,259.287,983.467,254.333Z" transform="translate(-591.943 -254.333)" fill="none" stroke="#5b4da7" stroke-width="2"/>
      <path id="Caminho_244" data-name="Caminho 244" d="M918.042,313.9s6.6,64.4-24.771,75.966-69.359,31.375-87.524,36.329-42.936,31.378-54.5,56.149-39.636,59.451-66.057,62.753-77.615,6.607-72.661,41.286,54.5,56.149,84.222,39.634,100.737-29.725,128.81-19.817,49.542-1.652,69.359-24.771,62.753-62.755,64.4-105.691,9.084-120.551,1.652-150.276S921.344,274.261,918.042,313.9Z" transform="translate(-562.026 -198.296)" fill="none" stroke="#5b4da7" stroke-width="1"/>
      <path id="Caminho_245" data-name="Caminho 245" d="M838.758,333.528c-9.908,13.21-34.677,21.467-56.146,29.725s-67.709,18.165-82.572,47.89-41.284,67.709-26.421,84.222,37.979,9.909,66.055,18.165,61.1,4.954,85.874-29.725,37.982-79.268,34.68-105.688S848.666,320.315,838.758,333.528Z" transform="translate(-477.787 -141.963)" fill="none" stroke="#5b4da7" stroke-width="1"/>
      <path id="Caminho_246" data-name="Caminho 246" d="M666.57,404.568c-11.558,1.65-46.238,4.952-41.284,21.467s29.723,28.073,46.238,19.817,28.076-16.512,26.423-31.375S678.128,402.916,666.57,404.568Z" transform="translate(-543.402 -34.651)" fill="none" stroke="#5b4da7" stroke-width="1"/>
      <path id="Caminho_247" data-name="Caminho 247" d="M711.318,367.832c-8.937,10.674-19.668,16.007-26.82,46.248S700.59,440.76,718.472,446.1s32.18,0,46.485-16.007,33.974-37.355,23.245-60.479S720.258,357.16,711.318,367.832Z" transform="translate(-457.19 -104.398)" fill="none" stroke="#5b4da7" stroke-width="1"/>
    </g>
    <g id="Grupo_278" data-name="Grupo 278" transform="translate(1281.504 920.456)">
      <path id="Caminho_248" data-name="Caminho 248" d="M1139.116,602.156c-21.469-16.513-28.422,52.943-37.982,79.268s-18.222,34.68-49.542,34.68c-19.331,0-51.118,3.728-67.88-13.037-23.733-23.733-1.454-43.671-17.991-59.627s-102.649,26.044-125.508,41.284c-11.62,7.748-34.68,23.121-64.4,29.725s-92.931-26.7-108.993-56.146c-18.348-33.639-47.538-163.259-53.835-190.017-6.849-29.111-36.993-79.164-53.508-94.026s-42.936-36.329-56.146-26.421,9.908,51.192,28.073,61.1c9.037,4.927,44.588,44.588,39.634,108.993-2.165,28.142-12.175,62.986-23.3,94.66-14.328,40.813-20.377,140.665,11.739,166.261s587.9,40.461,587.9,40.461S1160.585,618.668,1139.116,602.156Z" transform="translate(-499.426 -345.315)" fill="none" stroke="#5b4da7" stroke-width="1"/>
      <path id="Caminho_249" data-name="Caminho 249" d="M550.5,426.074s6.609,41.284-6.6,67.707-26.426,67.709-8.259,87.526,67.707,4.954,64.4-34.679-29.725-107.343-33.027-127.16S548.844,406.257,550.5,426.074Z" transform="translate(-459.072 -253.457)" fill="none" stroke="#5b4da7" stroke-width="1"/>
      <path id="Caminho_250" data-name="Caminho 250" d="M547.93,448c-6.6,3.3-23.119,42.936-3.3,52.844s33.03,1.65,31.378-21.469S554.534,444.7,547.93,448Z" transform="translate(-446.598 -194.462)" fill="none" stroke="#5b4da7" stroke-width="1"/>
    </g>
    <g id="Grupo_279" data-name="Grupo 279" transform="translate(959.795 901.139)">
      <path id="Caminho_251" data-name="Caminho 251" d="M388,451.836c14.863-17.34,59.451-37.157,74.313-42.111s74.313-69.359,106.516-71.836,74.313,7.431,89.176,29.725,27.248,61.928,47.065,76.79,32.2,54.5,24.771,84.222S702.6,602.939,707.55,630.188s-17.34,71.836-39.634,76.79-79.268-24.771-101.562-14.863-118.9-14.863-146.15-7.431-34.68-14.863-47.065-24.771,9.909-54.5,27.248-61.928,89.176,0,104.039-17.34,7.431-52.019-17.34-66.882-54.5,19.817-71.836,22.294-32.532-8.254-42.274-31.375S379.135,462.183,388,451.836Z" transform="translate(-369.553 -337.517)" fill="none" stroke="#5b4da7" stroke-width="2"/>
      <path id="Caminho_252" data-name="Caminho 252" d="M425.86,412c7.246-2.309,6.225-23.706-3.963-26.763s-27.112,4.853-32.6,10.188-9.453,19.539-4.077,30.568S418.612,414.307,425.86,412Z" transform="translate(-350.187 -268.038)" fill="none" stroke="#5b4da7" stroke-width="1"/>
      <path id="Caminho_253" data-name="Caminho 253" d="M633.8,653.5c19.673-6.71,29.118-23.654,33.337-39.815,6.084-23.32,17.555-76.773,18.393-79.292,3.24-9.73,6.3-18.923,8.271-26.55,5.373-20.808-4.536-49.988-16.116-58.4-18.033-13.1-29.307-35.373-40.208-56.919-5.024-9.928-9.767-19.3-14.342-25.948-6.314-9.17-31.269-19.066-60.575-19.066-2.836,0-5.623.1-8.283.3-13.1.973-49.275,30.761-64.717,43.481-18.046,14.858-19.074,46.547-13.9,57.452,3.349,7.055,38.878,60.464,42.611,82.741,3.2,19.108-1.553,37.518-13.054,50.506-7.255,8.194-27.1,36.721-45.866,30.117s-51.172-18.165-66.525-6.6c-20.01,15.071-1.058,36.807,20.793,38.222s44.677-9.836,67.907-6.847c20.652,2.658,36.471,18.066,50.414,18.066,5.051,0,21.561-4.412,29.837-4.412C578.121,650.537,614.125,660.213,633.8,653.5Z" transform="translate(-347.682 -322.746)" fill="none" stroke="#5b4da7" stroke-width="1"/>
      <path id="Caminho_254" data-name="Caminho 254" d="M400.65,433.171s18.165-20.637,34.68-18.759,39.634,30.013,18.165,43.146-39.634,15.009-51.194,7.506S390.741,444.43,400.65,433.171Z" transform="translate(-334.31 -224.113)" fill="none" stroke="#5b4da7" stroke-width="1"/>
      <path id="Caminho_255" data-name="Caminho 255" d="M468.052,375.627c-19.817,11.558-49.542,31.375-24.771,59.451s39.634,66.055,36.332,87.524-23.121,61.1-3.3,69.359,67.709,18.165,85.874,0,24.771-59.453,37.982-85.874,4.957-47.89-8.256-64.4-36.329-42.936-44.588-66.055S487.868,364.066,468.052,375.627Z" transform="translate(-274.554 -300.942)" fill="none" stroke="#5b4da7" stroke-width="1"/>
      <path id="Caminho_256" data-name="Caminho 256" d="M480.769,376.909c-11.561,3.3-36.329,16.515-19.817,42.938s33.027,74.313,31.378,92.478,16.512,29.725,31.375,14.863,31.378-41.286,24.771-71.011-23.119-44.588-29.725-61.1S492.33,373.607,480.769,376.909Z" transform="translate(-242.684 -280.757)" fill="none" stroke="#5b4da7" stroke-width="1"/>
    </g>
    <g id="Grupo_280" data-name="Grupo 280" transform="translate(29.511 612.995)">
      <path id="Caminho_257" data-name="Caminho 257" d="M58.406,316.5c4.954,9.908,12.386,9.908,32.2,4.954s44.588-7.431,49.542-24.771,22.294-52.019,37.157-61.928,49.542-24.771,49.542,0-9.908,74.313-22.294,94.13-39.634,81.745-54.5,104.039-37.157,56.974-42.111,84.222-7.431,76.79-19.817,81.745-32.2-7.431-47.065-22.294S-1.045,532-3.522,509.71-6,286.77-6,286.77s27.248-9.908,42.111,0S53.452,306.587,58.406,316.5Z" transform="translate(5.999 -221.194)" fill="none" stroke="#5b4da7" stroke-width="2"/>
      <path id="Caminho_258" data-name="Caminho 258" d="M64.8,283.348s14.02-44.831,31.442-50.939,21.09,4.342,11.206,29.723S80.9,327.012,70.261,319,55.961,300.537,64.8,283.348Z" transform="translate(103.245 -207.141)" fill="none" stroke="#5b4da7" stroke-width="1"/>
      <path id="Caminho_259" data-name="Caminho 259" d="M3.165,265.528c12.378-11.561,30.558-11.561,42.118,11.558s36.332,28.073,57.8,16.515,39.636-1.652,42.938,13.21-11.561,44.588-33.03,59.451-37.982,51.195-41.284,80.92,6.606,66.057-14.863,52.844-42.1-16.512-47.892-56.146S-9.213,277.086,3.165,265.528Z" transform="translate(11.695 -166.925)" fill="none" stroke="#5b4da7" stroke-width="1"/>
      <path id="Caminho_260" data-name="Caminho 260" d="M11.346,267s19.817,4.952,29.725,28.073,28.076,18.165,37.984,8.256,44.586-19.814,37.982-1.65-23.119,37.982-41.286,54.5S55.934,384.249,50.98,412.322,46.026,465.169,27.861,440.4,4.742,387.551,6.392,367.734-5.166,267,11.346,267Z" transform="translate(19.209 -153.535)" fill="none" stroke="#5b4da7" stroke-width="1"/>
      <path id="Caminho_261" data-name="Caminho 261" d="M11.214,311.929s-4.952,29.725,3.3,44.588,14.863-1.652,19.817-18.167,1.65-33.027-6.606-44.588S9.564,302.02,11.214,311.929Z" transform="translate(29.249 -119.196)" fill="none" stroke="#5b4da7" stroke-width="1"/>
    </g>
    <g id="Grupo_281" data-name="Grupo 281" transform="translate(24.557 1039.573)">
      <path id="Caminho_262" data-name="Caminho 262" d="M1.909,394.058s64.4-4.954,81.745,12.386,19.817,39.634,29.725,64.4,42.111,34.68,49.542,19.817,44.588-34.679,69.359-27.248,44.588,74.313,42.111,106.516,4.954,76.79,12.386,108.993H-8Z" transform="translate(7.999 -393.402)" fill="none" stroke="#5b4da7" stroke-width="2"/>
      <path id="Caminho_263" data-name="Caminho 263" d="M3.062,416.963C14.625,405.4,65,397.144,73.256,431.823s26.423,90.828,67.709,95.783,62.753-61.1,80.917-44.588,9.911,49.542,11.561,89.176S263.169,644.857,245,648.159,3.062,637.429,3.062,637.429-8.5,428.521,3.062,416.963Z" transform="translate(16.75 -373.372)" fill="none" stroke="#5b4da7" stroke-width="1"/>
      <path id="Caminho_264" data-name="Caminho 264" d="M24.5,427.926s44.588,33.027,54.5,74.313,26.421,74.313,62.753,74.313,37.984-57.8,57.8-66.055,14.863,47.892,18.165,69.359-21.467,33.03-44.588,34.68-171.746,0-171.746,0S-13.484,406.456,24.5,427.926Z" transform="translate(17.619 -344.703)" fill="none" stroke="#5b4da7" stroke-width="1"/>
      <path id="Caminho_265" data-name="Caminho 265" d="M14.058,450.147c13.21-4.954,24.771,13.213,34.68,46.24s21.467,49.542-6.606,54.5-26.421-3.3-31.375-31.378S.847,455.1,14.058,450.147Z" transform="translate(28.058 -310.776)" fill="none" stroke="#5b4da7" stroke-width="1"/>
    </g>
    <path id="Caminho_266" data-name="Caminho 266" d="M49.088,410.283s4.954,39.636,19.817,36.332S92.024,430.1,83.768,415.238,40.83,390.467,49.088,410.283Z" transform="translate(115.017 654.714)" fill="none" stroke="#5b4da7" stroke-width="1"/>
    <g id="Grupo_282" data-name="Grupo 282" transform="translate(337.5 918.762)">
      <path id="Caminho_267" data-name="Caminho 267" d="M118.335,538.757c0,14.863,4.954,39.636,19.817,72.664s6.606,62.753,8.259,82.57S179.438,761.7,217.422,761.7,504.764,743.532,544.4,743.532s100.737-62.755,112.3-120.554,36.329-41.286,37.982-64.4-4.954-41.284-19.817-71.009-24.771-44.588-31.378-71.011-28.073-66.055-61.1-71.009-89.176,9.908-89.176,52.844-14.863,104.039-39.634,107.341-39.636,29.728-85.874,31.378-72.661-42.936-92.478-62.753-33.027-19.817-54.5-16.515-57.8,29.725-77.618,37.982S118.335,523.894,118.335,538.757Z" transform="translate(-118.335 -344.631)" fill="none" stroke="#5b4da7" stroke-width="2"/>
      <path id="Caminho_268" data-name="Caminho 268" d="M248.207,483.376s33.03,23.121,51.194,49.542,54.494,46.238,97.432,21.467,57.8-31.375,75.966-33.027,37.982-41.286,34.68-79.268-9.908-67.707,11.558-80.917,47.893-16.515,64.4,6.6,18.167,64.4,29.725,99.084,33.027,56.146,11.561,92.478,0,75.968-29.725,112.3S486.009,720.353,411.7,720.353s-196.517,12.385-221.288-14.038-8.259-54.5-31.378-97.435-49.542-87.524-21.469-108.99,46.24-1.652,66.057-11.561S233.344,468.513,248.207,483.376Z" transform="translate(-107.836 -335.488)" fill="none" stroke="#5b4da7" stroke-width="1"/>
      <path id="Caminho_269" data-name="Caminho 269" d="M543.71,379.117c24.821-4.7,54.5,75.963,49.542,113.945s-13.21,79.268-18.165,117.252S462.79,669.764,418.2,661.505s-170.093,17.342-204.773,8.259-31.378-29.725-33.027-67.709-3.3-37.982-31.378-74.313-9.908-47.89-9.908-47.89,12.383-12.386,45.41-.825,42.936-18.165,64.4,11.561,31.378,87.526,118.9,66.057,113.945-21.472,142.02-52.847S513.162,384.894,543.71,379.117Z" transform="translate(-96.177 -293.982)" fill="none" stroke="#5b4da7" stroke-width="1"/>
      <path id="Caminho_270" data-name="Caminho 270" d="M161.536,437.345c-7.449,8.514,3.3,41.288,6.606,62.755s-11.561,51.192,6.6,66.055,57.8-11.561,84.222-14.863,120.554-11.561,160.187,0,95.782-13.208,99.084-46.238S506.326,448.93,468.7,457.162c-52.844,11.561-108.993,54.5-145.325,57.8s-77.615-9.909-95.78-36.332S173.1,424.132,161.536,437.345Z" transform="translate(-58.325 -212.666)" fill="none" stroke="#5b4da7" stroke-width="2"/>
      <path id="Caminho_271" data-name="Caminho 271" d="M258.074,482.508c3.3,21.469,33.03,21.467,59.451,14.863s24.771-28.076,13.21-39.634S254.772,461.038,258.074,482.508Z" transform="translate(87.894 -183.516)" fill="none" stroke="#5b4da7" stroke-width="1"/>
      <path id="Caminho_272" data-name="Caminho 272" d="M201,471.207c-10.87-6.322-25.224-11.407-31.311,11.142s5.623,35.626,16.661,26.993S211.871,477.529,201,471.207Z" transform="translate(-44.944 -165.609)" fill="none" stroke="#5b4da7" stroke-width="1"/>
      <path id="Caminho_273" data-name="Caminho 273" d="M298.347,405.241A173.256,173.256,0,0,1,300,444.875c-1.652,21.469-6.606,31.378,11.558,36.332s29.728-18.167,21.469-41.286-13.21-39.634-19.817-49.542S295.045,390.378,298.347,405.241Z" transform="translate(146.705 -282.949)" fill="none" stroke="#5b4da7" stroke-width="1"/>
    </g>
    <path id="Caminho_274" data-name="Caminho 274" d="M425.505,247.452c-9.908,33.027-37.982,82.57-14.863,108.993S486.608,368,486.608,341.582s-9.908-64.4,3.3-99.084,51.194-85.874,39.634-100.737-57.8-21.469-72.661,14.863S435.414,214.422,425.505,247.452Z" transform="translate(637.786 256.9)" fill="none" stroke="#5b4da7" stroke-width="1"/>
    <path id="Caminho_275" data-name="Caminho 275" d="M426.3,192.332c-6.607,14.863-29.725,52.844-11.561,66.055s41.286,16.515,42.938-6.6,6.606-37.984-1.652-52.847S432.9,177.469,426.3,192.332Z" transform="translate(646.904 336.792)" fill="none" stroke="#5b4da7" stroke-width="1"/>
    <path id="Caminho_276" data-name="Caminho 276" d="M429.608,164s18.286-38.38,38.606-27.414,12.192,16.448-6.1,38.38S419.447,182.277,429.608,164Z" transform="translate(675.418 263.915)" fill="none" stroke="#5b4da7" stroke-width="1"/>
    <path id="Caminho_277" data-name="Caminho 277" d="M486.094,147.743c12.314-10.114,35.569-31.784,41.043-50.565s27.382-26,32.854-14.447,4.085,27.451-10.966,37.563-41.279,38.554-38.3,59.4-4.466,44.672-29.785,34.251C464.278,207.085,473.78,157.857,486.094,147.743Z" transform="translate(741.564 179.053)" fill="none" stroke="#5b4da7" stroke-width="1"/>
    <path id="Caminho_278" data-name="Caminho 278" d="M818.05,43.849s34.68,36.332,33.027,67.709,3.3,61.1,11.561,77.615-1.652,54.5,4.954,74.313-23.119,39.634-36.332,37.984-6.607-46.24-41.286-74.313-61.1-18.167-80.917-42.938S616.576,53.758,547.217,86.788,411.8,152.845,393.636,202.387,368.868,313.03,316.021,349.362,231.8,423.675,208.68,417.068s-64.4-31.375-41.286-39.634,46.243-13.21,59.451-33.027,26.423-33.03,47.892-44.588,46.238-49.542,46.238-74.313-9.908-66.057,8.256-75.966,79.268-41.286,89.176-77.618S453.087-5.69,497.675-8.995,643-15.6,690.89-17.251,789.974-5.69,818.05,43.849Z" transform="translate(281.574 39.392)" fill="none" stroke="#5b4da7" stroke-width="1"/>
    <path id="Caminho_279" data-name="Caminho 279" d="M203.495,42.344s12.641-15.175,22.118-3.034,18.96,22.762,7.9,30.35S195.6,66.624,203.495,42.344Z" transform="translate(342.841 116.182)" fill="none" stroke="#5b4da7" stroke-width="1"/>
    <path id="Caminho_280" data-name="Caminho 280" d="M366.31,60.3s39.634,31.378,54.5,59.453,23.121,56.149,49.542,61.1,49.542,9.908,62.753,36.329,8.259,52.847,28.076,42.938,9.908-34.68,8.256-57.8-16.515-39.634-11.561-74.313-9.909-72.664-34.68-99.084S430.715-12.364,397.688-9.059,323.374,23.966,366.31,60.3Z" transform="translate(558.263 51.017)" fill="none" stroke="#5b4da7" stroke-width="1"/>
    <path id="Caminho_281" data-name="Caminho 281" d="M362.715,28.044s31.375,26.423,47.89,61.1,23.119,72.664,54.5,67.709,36.332,11.558,49.542,23.119,21.469-3.3,13.213-37.982-1.652-34.68-8.259-67.709S458.5-3.331,427.12-3.331,349.5,1.623,362.715,28.044Z" transform="translate(576.721 60.151)" fill="none" stroke="#5b4da7" stroke-width="2"/>
    <path id="Caminho_282" data-name="Caminho 282" d="M383.38,31.8s16.515,8.256,21.469,39.634,9.908,62.755,33.027,52.847,37.984,8.256,42.938-1.652,3.3-42.936-9.908-67.707S429.62,3.729,411.456,5.379,368.517,8.681,383.38,31.8Z" transform="translate(603.946 72.908)" fill="none" stroke="#5b4da7" stroke-width="1"/>
    <path id="Caminho_283" data-name="Caminho 283" d="M394.675,22.158c-3.3,9.908,0,52.844,18.167,59.451s26.421-8.259,19.817-28.076S397.98,12.247,394.675,22.158Z" transform="translate(625.678 94.113)" fill="none" stroke="#5b4da7" stroke-width="1"/>
    <path id="Caminho_284" data-name="Caminho 284" d="M270.261,121.458c-12.737,8.833-26.971,16.059-47.86,35.445s-21.355,31.779-35.353,32.809-19.168,14.8-.7,18.588,34.429-8.021,53.711-25.918,57.1-33.548,61.066-56.669S283,112.625,270.261,121.458Z" transform="translate(302.015 229.782)" fill="none" stroke="#5b4da7" stroke-width="1"/>
    <path id="Caminho_285" data-name="Caminho 285" d="M235.709,150.067c-4.92,15.873,1.64,36.508-3.28,53.966s0,41.271,14.761,34.92,24.6-50.791,41-74.6,39.364-52.381,78.727-71.428,95.111-41.261,101.671-57.137S444.01-.722,416.127-3.9,357.08-7.074,348.881,26.258s-21.323,55.557-41,73.015S240.631,134.2,235.709,150.067Z" transform="translate(384.97 57.362)" fill="none" stroke="#5b4da7" stroke-width="1"/>
    <path id="Caminho_286" data-name="Caminho 286" d="M298.829,1.953c-10.25,8.259-5.063,19.819-13.505,39.636s8.442,26.423,35.452,13.213,45.579-23.119,35.452-37.984S309.077-6.308,298.829,1.953Z" transform="translate(462.597 63.121)" fill="none" stroke="#5b4da7" stroke-width="1"/>
    <path id="Caminho_287" data-name="Caminho 287" d="M241.872,64.108s-3.3,6.6-4.954,28.073,1.65,34.68,8.256,21.469,18.167-31.378,18.167-47.89S245.177,54.2,241.872,64.108Z" transform="translate(393.704 146.293)" fill="none" stroke="#5b4da7" stroke-width="1"/>
    <path id="Caminho_288" data-name="Caminho 288" d="M113.133,88.5a94.284,94.284,0,0,0,42.938-4.954c23.119-8.256,37.982-9.908,49.542,8.259s19.817,59.448,37.982,82.57,37.982,49.542,23.119,51.194-51.192-42.938-66.055-62.755-44.588-36.332-69.359-37.982S61.941,109.966,66.9,95.1,90.014,83.543,113.133,88.5Z" transform="translate(142.621 179.703)" fill="none" stroke="#5b4da7" stroke-width="1"/>
    <path id="Caminho_289" data-name="Caminho 289" d="M100.333,136.369c-11.561,8.259-29.725,33.03-4.954,34.68s67.707-14.863,92.478,11.561,47.892,49.542,56.149,79.268,16.512,44.588,37.982,46.24S349.7,278.389,353,232.151s-3.3-61.1-19.817-80.92,0-41.284,8.256-61.1,13.21-33.03,29.725-34.682,36.332-3.3,47.892,16.515,21.467,23.121,37.982,0,13.21-61.1-4.954-71.009S346.392-4,319.971-7.3s-120.554-8.256-133.764,0S168.04,19.117,159.784,48.842s-18.167,57.8-31.378,66.06S111.894,128.112,100.333,136.369Z" transform="translate(166.981 47.609)" fill="none" stroke="#5b4da7" stroke-width="1"/>
    <path id="Caminho_290" data-name="Caminho 290" d="M135.931,62.51s0,26.423-13.21,46.24,3.3,18.165,36.332,39.634,42.936,46.24,56.146,71.011,46.24,23.119,46.24-13.213S239.969,136.824,249.878,103.8s36.332-80.92,61.1-82.572S325.844,3.06,309.329-3.544s-102.386,6.6-125.505,3.3S132.629,26.178,135.931,62.51Z" transform="translate(218.907 57.063)" fill="none" stroke="#5b4da7" stroke-width="2"/>
    <g id="Grupo_283" data-name="Grupo 283" transform="translate(99.747 328.626)">
      <path id="Caminho_291" data-name="Caminho 291" d="M52.853,130.191s26.421,49.542,6.6,74.313-33.03,44.588-29.725,69.359-21.469,61.1,4.954,72.664,44.59-44.59,80.92-61.1,49.54-23.121,82.57-4.954,49.542,47.89,69.359,21.469,8.259-95.782-8.256-127.16-64.4-56.146-89.176-56.146-54.5,14.86-71.011-1.652S41.293,102.118,52.853,130.191Z" transform="translate(-22.355 -106.396)" fill="none" stroke="#5b4da7" stroke-width="1"/>
      <path id="Caminho_292" data-name="Caminho 292" d="M67.823,128.569c-3.3,13.213,24.771,37.984,4.954,57.8s-41.286,47.89-33.027,67.707S69.473,239.214,95.9,232.607s51.194-16.512,72.664,0,34.68,44.588,47.89,26.423,11.561-59.451-9.908-89.176-51.194-49.542-72.661-47.89S71.127,115.358,67.823,128.569Z" transform="translate(0.657 -84.957)" fill="none" stroke="#5b4da7" stroke-width="1"/>
      <path id="Caminho_293" data-name="Caminho 293" d="M69.958,145.35s0,26.423-8.256,37.982,1.652,23.121,26.423,13.213,46.24-6.606,57.8,9.908,26.421,6.6,23.119-14.863-18.165-41.286-33.027-54.5S66.654,133.79,69.958,145.35Z" transform="translate(31.549 -70.361)" fill="none" stroke="#5b4da7" stroke-width="1"/>
      <path id="Caminho_294" data-name="Caminho 294" d="M77.759,140.709c-13.213,6.6-11.563,28.073,8.254,26.421s42.941,4.954,36.334-9.908S90.969,134.1,77.759,140.709Z" transform="translate(46.87 -59.113)" fill="none" stroke="#5b4da7" stroke-width="1"/>
    </g>
    <g id="Grupo_284" data-name="Grupo 284" transform="translate(-17.92 0.44)">
      <path id="Caminho_295" data-name="Caminho 295" d="M124.668-7.693s64.407,49.54,41.286,82.567-42.938,37.984-56.149,84.224,4.957,105.688-13.21,123.856S63.568,281.3,27.236,249.927s-57.8-109-51.194-155.233S4.117-9.345,42.1-22.556,124.668-7.693,124.668-7.693Z" transform="translate(25.147 26.091)" fill="none" stroke="#5b4da7" stroke-width="2"/>
      <path id="Caminho_296" data-name="Caminho 296" d="M86.24-10.631S152.3,20.744,129.178,48.817,71.377,108.27,71.377,138s11.558,64.4-4.954,84.222-41.286,4.954-59.451-36.332S-24.4,50.47,3.671,15.792,69.725-18.89,86.24-10.631Z" transform="translate(43.758 42.24)" fill="none" stroke="#5b4da7" stroke-width="1"/>
      <path id="Caminho_297" data-name="Caminho 297" d="M-4.008,44.773c-3.3,21.469-9.908,80.92,14.863,117.252s37.982,34.68,37.982,1.652,0-52.847,19.817-77.618,34.68-56.154,19.817-74.316S57.092-14.675,33.973-1.464-.7,23.307-4.008,44.773Z" transform="translate(51.437 52.89)" fill="none" stroke="#5b4da7" stroke-width="1"/>
    </g>
    <path id="Caminho_298" data-name="Caminho 298" d="M185.825,252.2s4.954,56.149-11.561,77.618-16.515,56.146-24.771,84.222-26.421,61.1-47.89,71.009-39.636,67.709,3.3,87.526,66.057,28.073,90.828-6.606,74.313-59.451,61.1-89.176-24.771-61.1-11.561-97.432,28.076-89.176,9.908-122.206S184.176,207.616,185.825,252.2Z" transform="translate(160.754 397.47)" fill="none" stroke="#5b4da7" stroke-width="1"/>
    <path id="Caminho_299" data-name="Caminho 299" d="M142,337.882c-1.65,19.817-18.165,34.68-36.329,47.892s-28.076,31.375-4.954,51.192S142,473.3,163.464,453.481s29.725-33.03,47.89-49.542,16.512-26.423,4.954-52.844-23.119-46.24-42.936-49.542S143.645,318.065,142,337.882Z" transform="translate(173.206 509.962)" fill="none" stroke="#5b4da7" stroke-width="1"/>
    <path id="Caminho_300" data-name="Caminho 300" d="M154.2,310.646c-19.817,6.6-23.119,51.192-39.634,56.146s-26.423,24.771-11.561,39.634,33.027,19.817,49.542,0,33.03-24.771,28.076-51.192S174.021,304.04,154.2,310.646Z" transform="translate(185.769 522.335)" fill="none" stroke="#5b4da7" stroke-width="1"/>
    <path id="Caminho_301" data-name="Caminho 301" d="M133.434,324.229c-6.606,1.65-6.606,18.165-19.817,24.771s-14.863,26.421,0,21.467,33.027-11.558,31.375-28.073S140.038,322.577,133.434,324.229Z" transform="translate(196.632 543.431)" fill="none" stroke="#5b4da7" stroke-width="1"/>
    <path id="Caminho_302" data-name="Caminho 302" d="M139.081,243.941c-4.954,19.817,13.21,37.982,1.65,54.5s-28.073,51.194-13.21,62.753,36.332,1.652,41.286-21.467,19.817-52.847,9.908-75.966S144.035,224.124,139.081,243.941Z" transform="translate(224.013 412.34)" fill="none" stroke="#5b4da7" stroke-width="1"/>
    <g id="Grupo_285" data-name="Grupo 285" transform="translate(386.411 483.887)">
      <path id="Caminho_303" data-name="Caminho 303" d="M149.443,171.373c-14.863,13.213,9.908,42.938-6.606,62.755s13.213,29.725,39.634,69.359,62.755,13.21,108.993,31.375,97.432,71.011,89.176,127.16,26.421,108.99,71.009,82.57,105.691-56.149,132.114-41.286,49.54,31.378,72.661,4.954S705.965,374.5,684.5,339.816s-31.378-69.359-52.844-36.329-54.5,69.357-82.57,47.89-75.966-90.828-125.508-94.13S331.1,217.613,307.978,204.4s-42.936,8.256-75.966,4.954S164.305,158.162,149.443,171.373Z" transform="translate(-138.08 -169.074)" fill="none" stroke="#5b4da7" stroke-width="2"/>
      <path id="Caminho_304" data-name="Caminho 304" d="M156.62,219.2c6.606,23.119,19.817,46.238,57.8,46.238s100.734,26.423,118.9,46.24,52.847,112.29,52.847,143.668,10.733,56.974,37.157,47.065,104.861-73.483,139.541-55.316,47.89-19.817,44.588-62.755-24.771-41.284-51.195-31.375-57.8-3.3-74.313-23.121-37.981-61.1-74.313-71.009-94.13-19.817-117.249-42.938-34.68-19.817-61.1-14.863-52.844,0-61.1-11.558S150.014,196.075,156.62,219.2Z" transform="translate(-113.882 -144.234)" fill="none" stroke="#5b4da7" stroke-width="1"/>
      <path id="Caminho_305" data-name="Caminho 305" d="M167.1,207.549c4.954,14.863,11.558,21.469,41.284,24.771s42.936-18.165,31.375-28.073-33.027,1.652-44.588-1.652S162.148,192.687,167.1,207.549Z" transform="translate(-96.289 -125.983)" fill="none" stroke="#5b4da7" stroke-width="1"/>
      <path id="Caminho_306" data-name="Caminho 306" d="M227.935,237.65s34.677,16.515,44.586,49.542,39.634,75.966,36.332,94.13-8.256,44.588,8.256,44.588,39.636-19.817,67.709-28.073,44.585-18.165,67.707-11.561,33.027-16.512,28.073-36.329-28.073-21.469-54.5-16.515-52.844-13.21-71.009-31.378-37.984-49.542-57.8-59.451S259.31,222.787,246.1,214.531,204.813,214.531,227.935,237.65Z" transform="translate(-18.403 -106.541)" fill="none" stroke="#5b4da7" stroke-width="1"/>
      <path id="Caminho_307" data-name="Caminho 307" d="M253.335,262.807S274.8,287.581,273.152,310.7s-8.259,46.235,6.6,42.936,39.634-16.517,37.984-34.68-13.21-31.375-26.423-52.844S241.774,238.036,253.335,262.807Z" transform="translate(28.858 -54.083)" fill="none" stroke="#5b4da7" stroke-width="1"/>
    </g>
    <g id="Grupo_286" data-name="Grupo 286" transform="translate(710.758 365.268)">
      <path id="Caminho_308" data-name="Caminho 308" d="M322.643,161.188c0,19.817-9.909,61.928-29.725,71.836s-39.634,56.974-4.954,76.79,64.4,81.745,94.13,81.745,56.974-74.313,69.359-104.039S498.518,203.3,491.087,181s-14.863-52.019-34.68-56.974-42.111,29.725-59.451,34.68-27.248-42.111-47.065-37.157S322.643,141.371,322.643,161.188Z" transform="translate(-269.018 -121.188)" fill="none" stroke="#5b4da7" stroke-width="2"/>
      <path id="Caminho_309" data-name="Caminho 309" d="M304.517,134.377C300.006,140.393,297,144.9,297,164.454s22.557,18.046,28.573,7.521,7.518-15.039,0-27.07S309.028,128.362,304.517,134.377Z" transform="translate(-227.686 -105.625)" fill="none" stroke="#5b4da7" stroke-width="1"/>
      <path id="Caminho_310" data-name="Caminho 310" d="M410.171,150.4s-11.561,39.634-33.027,51.194-49.542,23.119-64.4,23.119-34.68,6.606-36.332,28.073,13.213,33.03,28.076,39.634,41.284,39.634,46.238,54.5,29.725,28.073,44.588-8.256,21.469-71.011,39.634-99.084,28.073-51.194,21.469-75.966S425.034,117.37,410.171,150.4Z" transform="translate(-258.288 -102.966)" fill="none" stroke="#5b4da7" stroke-width="1"/>
      <path id="Caminho_311" data-name="Caminho 311" d="M342.638,212.93s-37.984,3.3-49.542,13.21-4.957,23.121,13.21,33.03,29.725,24.771,34.68,41.284,21.467,9.911,29.725-16.512,8.256-39.634,24.771-69.359,26.423-46.24,18.165-59.451-28.073,13.21-36.329,31.375S347.592,211.278,342.638,212.93Z" transform="translate(-241.948 -76.32)" fill="none" stroke="#5b4da7" stroke-width="1"/>
      <path id="Caminho_312" data-name="Caminho 312" d="M299.761,196.692c-1.652,8.259,9.906,21.469,18.165,24.771s19.817,11.561,24.771-6.6,16.515-23.121,11.561-33.03-16.515,3.3-29.725,6.606S300.722,191.886,299.761,196.692Z" transform="translate(-223.842 -36.964)" fill="none" stroke="#5b4da7" stroke-width="1"/>
    </g>
    <g id="Grupo_287" data-name="Grupo 287" transform="translate(595.899 200.033)">
      <path id="Caminho_313" data-name="Caminho 313" d="M343.244,203.57c-11.561,31.378-46.24,46.24-71.011,66.057s-67.7,44.586-41.284,72.661,67.707,56.149,77.615,11.561,41.286-33.03,51.194-75.966,16.512-74.313,37.982-84.222,41.286-21.469,51.194-6.606-4.957,44.588,18.165,34.68,37.982-51.192,72.661-51.192,67.709,1.65,72.664-19.817-19.819-24.771-41.286-44.588S495.175,49.989,468.752,54.943s-71.011,26.423-85.874,56.149A915.606,915.606,0,0,0,343.244,203.57Z" transform="translate(-222.649 -54.484)" fill="none" stroke="#5b4da7" stroke-width="1"/>
      <path id="Caminho_314" data-name="Caminho 314" d="M299.887,136.8s-51.194,36.329-61.1,51.192-9.908,28.076,4.954,37.984,28.076,1.65,37.984-24.771,26.423-21.469,39.634-42.938S309.8,130.192,299.887,136.8Z" transform="translate(-209.017 63.482)" fill="none" stroke="#5b4da7" stroke-width="1"/>
      <path id="Caminho_315" data-name="Caminho 315" d="M315.2,89.37c-13.21,14.863-33.027,51.192-26.421,64.4s37.982-13.213,59.451-3.3,9.906,44.588,23.119,36.332,18.165-31.378,42.936-37.982,72.664,3.3,74.313-14.863-23.119-26.423-42.936-39.634-44.588-28.076-61.1-31.378S328.416,74.507,315.2,89.37Z" transform="translate(-126.902 -42.67)" fill="none" stroke="#5b4da7" stroke-width="1"/>
      <path id="Caminho_316" data-name="Caminho 316" d="M334.975,74.663c-18.165,6.606-52.844,33.027-29.725,41.286s36.332-16.515,42.938,0,14.863,19.817,34.68,8.256,49.542,4.954,51.192-9.908-29.725-23.119-44.588-34.68S353.143,68.059,334.975,74.663Z" transform="translate(-111.994 -31.268)" fill="none" stroke="#5b4da7" stroke-width="1"/>
    </g>
    <g id="Grupo_288" data-name="Grupo 288" transform="translate(924.571 314.497)">
      <path id="Caminho_317" data-name="Caminho 317" d="M447.811,102.287c-18.165,6.6-42.936,26.421-59.451,46.238s3.3,41.286-3.3,71.011-29.725,90.828-29.725,117.249S366.891,374.77,380.1,411.1s26.423,87.526,11.561,117.252,3.3,74.313,37.982,36.329,82.572-79.268,56.149-102.387-66.057-67.707-52.847-115.6,52.847-145.325,52.847-191.562S465.978,95.681,447.811,102.287Z" transform="translate(-355.333 -100.692)" fill="none" stroke="#5b4da7" stroke-width="1"/>
      <path id="Caminho_318" data-name="Caminho 318" d="M435.455,113.072c-11.561,6.606-46.24,16.515-41.286,47.89s0,49.542-9.908,67.709S354.536,302.982,366.1,331.058s23.119,46.24,26.421,71.011,26.423,29.725,24.771,4.954-16.512-56.149-4.954-89.176,24.771-79.268,36.332-123.856S447.016,106.465,435.455,113.072Z" transform="translate(-344.627 -83.404)" fill="none" stroke="#5b4da7" stroke-width="1"/>
      <path id="Caminho_319" data-name="Caminho 319" d="M413.7,126.809c-4.954-6.6-16.515,11.561-14.863,41.286s-6.6,54.5-18.165,69.359-14.865,44.588-6.606,56.149,14.863-13.213,23.119-34.68,11.561-41.286,19.817-64.4S418.656,133.416,413.7,126.809Z" transform="translate(-334.435 -64.114)" fill="none" stroke="#5b4da7" stroke-width="1"/>
      <path id="Caminho_320" data-name="Caminho 320" d="M411.287,246.374c-4.152,1.427-10.505,14.674-12.46,28.5s-4.887,19.3-13.2,29.272-14.5,26.29-7.575,33.411,15.232,4.273,36-27.067,22.153-37.043,15.229-51.291S415.443,244.95,411.287,246.374Z" transform="translate(-326.181 113.607)" fill="none" stroke="#5b4da7" stroke-width="1"/>
    </g>
    <path id="Caminho_321" data-name="Caminho 321" d="M525.086,482.858c-8.256,39.634-61.1,104.039-95.78,112.295S343.432,657.908,354.993,702.5s44.585,42.936,71.009,13.21,69.359-69.359,107.343-77.615,102.387-8.259,137.066-23.121,74.316,3.3,122.206,42.938,67.707,77.618,87.524,51.194,19.817-46.24,31.378-90.828,34.68-62.753,14.863-90.828-29.728-41.284-6.606-89.176S979.225,332.581,989.134,297.9s26.426-80.92-1.65-113.947-79.268-62.753-90.828-74.313-46.238,14.863-67.707,51.192-47.892,82.57-94.133,85.874-77.615,0-84.222,37.982,3.3,75.966-33.027,120.554S533.343,443.224,525.086,482.858Z" transform="translate(566.276 222.966)" fill="none" stroke="#5b4da7" stroke-width="1"/>
    <path id="Caminho_322" data-name="Caminho 322" d="M674.254,287.125C666,315.2,657.739,356.484,626.362,389.512s-84.219,34.68-97.432,71.011-47.892,94.13-75.966,112.295-104.039,105.691-59.451,85.874,79.268-59.451,123.856-66.057,69.359,4.954,107.343-18.165,74.313-37.982,110.643,8.256,61.105,107.343,89.178,77.618,51.194-95.782,39.634-125.508-36.334-49.542-23.121-92.478S907.1,341.622,925.267,295.381s18.167-99.082-13.211-130.46-77.615-69.359-92.478-24.771S770.036,250.8,741.961,254.1,682.51,259.052,674.254,287.125Z" transform="translate(605.371 241.998)" fill="none" stroke="#5b4da7" stroke-width="2"/>
    <path id="Caminho_323" data-name="Caminho 323" d="M606.344,353.093c4.954,36.329-54.5,67.707-89.176,79.268s-46.238,28.076-61.1,56.149-29.725,67.707,8.256,59.451,85.872-19.819,112.295-36.332,64.4,1.652,79.268,31.378,28.073,97.432,56.149,94.13,49.545-52.847,42.938-85.874-46.238-74.313-29.725-108.993,67.707-110.643,82.57-132.112,34.68-82.572,14.863-115.6-66.057-92.48-71.011-59.451-8.256,97.435-33.027,115.6-42.938,36.332-69.359,34.68S601.39,316.761,606.344,353.093Z" transform="translate(694.748 250.344)" fill="none" stroke="#5b4da7" stroke-width="1"/>
    <path id="Caminho_324" data-name="Caminho 324" d="M536.933,254.662c-18.692,10.681-47.89,26.423-61.1,34.68s-31.378,31.375-16.515,42.936,49.542-21.469,72.661-21.469,36.332-4.954,39.634-28.073S560.055,241.449,536.933,254.662Z" transform="translate(714.616 434.649)" fill="none" stroke="#5b4da7" stroke-width="1"/>
    <path id="Caminho_325" data-name="Caminho 325" d="M534.218,304.446c3.3,21.469,9.909,42.938,16.515,69.359s9.908,39.634,24.771,26.423,28.073-34.68,18.165-66.057-13.21-61.1-28.073-62.753S530.913,282.979,534.218,304.446Z" transform="translate(832.931 465.782)" fill="none" stroke="#5b4da7" stroke-width="1"/>
    <path id="Caminho_326" data-name="Caminho 326" d="M647.228,156.085c-1.652,24.771,1.652,62.755-29.725,89.176s-100.737,18.167-97.435,59.451-8.256,99.084,14.863,115.6,49.542-39.634,74.313-61.1S678.6,291.5,688.512,253.519s3.3-44.59-6.6-75.966S648.88,131.313,647.228,156.085Z" transform="translate(812.402 277.257)" fill="none" stroke="#5b4da7" stroke-width="2"/>
    <path id="Caminho_327" data-name="Caminho 327" d="M654.255,166.376c11.558,8.256,0,26.423-1.652,49.542s-11.561,34.68-31.378,56.149-46.238,37.982-62.753,56.146-24.771,1.652-26.423-33.027,21.469-39.634,49.542-46.24,49.545-44.586,52.847-56.146S642.7,158.117,654.255,166.376Z" transform="translate(830.145 308.251)" fill="none" stroke="#5b4da7" stroke-width="1"/>
    <path id="Caminho_328" data-name="Caminho 328" d="M602.684,362.8s-8.259,36.332-29.725,44.588-11.558,39.634-1.65,85.874,19.814,89.176,31.375,90.826-9.906-84.222,8.259-110.643,49.542-26.423,54.5-49.542-13.213-8.256-26.424-23.119-9.908-39.636-14.863-56.149S602.684,339.684,602.684,362.8Z" transform="translate(871.808 562.659)" fill="none" stroke="#5b4da7" stroke-width="1"/>
  </g>
</svg>
